<svg xmlns="http://www.w3.org/2000/svg" version="1.1" viewBox="-5.0 -10.0 110.0 120">
    <path d="m81.5 37.656c-1.1211 1.8594-3.1406 2.9883-5.3125 2.9688h-52.375c-2.1602-0.003906-4.168-1.1211-5.3086-2.9609-1.1367-1.8359-1.2461-4.1328-0.28516-6.0703l12.5-25c1.0469-2.1328 3.2188-3.4805 5.5938-3.4688h27.375c2.375-0.011719 4.5469 1.3359 5.5938 3.4688l12.5 25c0.97656 1.9297 0.86719 4.2305-0.28125 6.0625zm-12.75 52.969h-15.625v-40.625c0-1.7266-1.3984-3.125-3.125-3.125s-3.125 1.3984-3.125 3.125v40.625h-15.625c-1.7266 0-3.125 1.3984-3.125 3.125s1.3984 3.125 3.125 3.125h37.5c1.7266 0 3.125-1.3984 3.125-3.125s-1.3984-3.125-3.125-3.125z"/>
</svg>