<svg xmlns="http://www.w3.org/2000/svg" data-name="Layer 1" viewBox="0 0 512 500" x="0px" y="0px">
    <path d="M325.35413,57.499a11.86833,11.86833,0,1,0,16.06652,4.85645A11.8682,11.8682,0,0,0,325.35413,57.499Z"/>
    <path d="M239.17236,103.67236a11.86854,11.86854,0,1,0,16.06653,4.85645A11.86822,11.86822,0,0,0,239.17236,103.67236Z"/>
    <path d="M152.9906,149.8457a11.86854,11.86854,0,1,0,16.06653,4.85694A11.8689,11.8689,0,0,0,152.9906,149.8457Z"/>
    <path d="M336.564,226.30078a11.86833,11.86833,0,1,0-16.0664-4.85644A11.86835,11.86835,0,0,0,336.564,226.30078Z"/>
    <path d="M250.38232,272.47461a11.86854,11.86854,0,1,0-16.06665-4.85693A11.86875,11.86875,0,0,0,250.38232,272.47461Z"/>
    <path d="M164.20044,318.648a11.86854,11.86854,0,1,0-16.06653-4.85645A11.86837,11.86837,0,0,0,164.20044,318.648Z"/>
    <path d="M272.82776,408.32764a11.86854,11.86854,0,1,0-16.06653-4.85645A11.86833,11.86833,0,0,0,272.82776,408.32764Z"/>
    <path d="M359.00952,362.1543a11.86854,11.86854,0,1,0-16.06653-4.85694A11.86894,11.86894,0,0,0,359.00952,362.1543Z"/>
    <path d="M186.646,454.501a11.86833,11.86833,0,1,0-16.06653-4.85645A11.86825,11.86825,0,0,0,186.646,454.501Z"/>
    <path d="M272.34912,177.12305h32.52a3.5,3.5,0,0,0,0-7h-32.52a3.5,3.5,0,0,0,0,7Z"/>
    <path d="M203.63086,190.49805a3.50017,3.50017,0,0,0,3.5,3.5h32.52a3.5,3.5,0,0,0,0-7h-32.52A3.50017,3.50017,0,0,0,203.63086,190.49805Z"/>
    <path d="M411.28613,38.03711l-10.918-20.37891a9.77283,9.77283,0,0,0-13.23046-3.998l-16.719,8.95752a8.908,8.908,0,0,0-10.2102-1.2583L121.25342,149.38379a3.50022,3.50022,0,0,0-1.84717,3.085v53.91992a3.50006,3.50006,0,0,0,3.5,3.5H284.335l-163.08154,87.374a3.50022,3.50022,0,0,0-1.84717,3.085l-.00049,53.91992a3.50006,3.50006,0,0,0,3.5,3.5H284.33521L126.041,442.57715a8.90915,8.90915,0,0,0-4.60889,9.19678l-16.71924,8.95849a9.77316,9.77316,0,0,0-3.999,13.23047l10.91845,20.37891a9.71157,9.71157,0,0,0,5.78711,4.73925,9.70672,9.70672,0,0,0,7.44287-.74121l16.71912-8.95752a8.89441,8.89441,0,0,0,10.21008,1.2583L390.74658,362.61621a3.50022,3.50022,0,0,0,1.84717-3.085V305.61133a3.49,3.49,0,0,0-3.50122-3.49561l.00122-.00439H227.66528l163.08179-87.374a3.50022,3.50022,0,0,0,1.84717-3.085V157.73242a3.48993,3.48993,0,0,0-3.50049-3.4956v-.0044h-161.429L385.959,69.42285a8.90755,8.90755,0,0,0,4.60938-9.19726l16.71826-8.958a9.77277,9.77277,0,0,0,3.99951-13.23047ZM122.30164,465.65674a19.29079,19.29079,0,0,0-10.16456,14.80469l-5.25329-9.80518a2.77309,2.77309,0,0,1,1.13476-3.75391l16.25635-8.71045,3.51648,6.564A8.771,8.771,0,0,0,122.30164,465.65674ZM385.59375,357.43555,148.48535,484.4707a1.92981,1.92981,0,0,1-2.61377-.791l-17.31543-32.31934a1.92953,1.92953,0,0,1,.79-2.61328l256.24756-137.29ZM375.1499,309.11133l-77.74951,41.65625H136.8501l77.74975-41.65625Zm10.44434-99.55469L126.40576,348.42188l.00049-45.97852,259.188-138.86524ZM375.1499,161.23242l-77.74951,41.65625H136.8501l77.74951-41.65625Zm8.44043-99.123a1.9175,1.9175,0,0,1-.936,1.14355h-.00049L126.40625,200.543V154.56445L363.51465,27.5293a1.92981,1.92981,0,0,1,2.61377.791l17.31592,32.31934A1.91489,1.91489,0,0,1,383.59033,62.10938Zm6.20825-34.7002A18.15792,18.15792,0,0,0,380.74,40.76953l-6.55249-12.23,16.25635-8.70947a2.77381,2.77381,0,0,1,3.75439,1.13476l2.89063,5.39551A10.13974,10.13974,0,0,0,389.79858,27.40918Z"/>
    <path d="M301.02,80.03027,271.41064,95.89453a3.49984,3.49984,0,1,0,3.30567,6.16992L304.32568,86.2002A3.49984,3.49984,0,1,0,301.02,80.03027Z"/>
    <path d="M214.83838,126.2041,185.229,142.06738a3.49984,3.49984,0,1,0,3.30567,6.16992L218.144,132.374a3.49983,3.49983,0,1,0-3.30566-6.16992Z"/>
    <path d="M209.33008,432.38574a3.47981,3.47981,0,0,0,1.6499-.416l29.60938-15.86426a3.49983,3.49983,0,1,0-3.30567-6.16992L207.67432,425.7998a3.50057,3.50057,0,0,0,1.65576,6.58594Z"/>
    <path d="M273.06641,250.35938a3.47971,3.47971,0,0,0,1.6499-.416l29.60937-15.86426a3.49983,3.49983,0,1,0-3.30566-6.16992l-29.60938,15.86426a3.50057,3.50057,0,0,0,1.65577,6.58594Z"/>
    <path d="M186.88477,296.53223a3.47971,3.47971,0,0,0,1.6499-.416L218.144,280.25293a3.49983,3.49983,0,1,0-3.30566-6.16992L185.229,289.94629a3.50057,3.50057,0,0,0,1.65577,6.58594Z"/>
    <path d="M295.51172,386.21191a3.4812,3.4812,0,0,0,1.6499-.416l29.60986-15.86328a3.49983,3.49983,0,1,0-3.30566-6.16992L293.856,379.626a3.50056,3.50056,0,0,0,1.65576,6.58593Z"/>
    <path d="M272.34912,325.002h32.52a3.5,3.5,0,0,0,0-7h-32.52a3.5,3.5,0,0,0,0,7Z"/>
    <path d="M203.63086,338.377a3.50017,3.50017,0,0,0,3.5,3.5h32.52a3.5,3.5,0,0,0,0-7h-32.52A3.50017,3.50017,0,0,0,203.63086,338.377Z"/>
</svg>